<svg width="24" height="24" viewBox="0 0 24 24" fill="none" xmlns="http://www.w3.org/2000/svg">
<path d="M16.775 4.80002L20.5333 8.55836C20.6917 8.71669 20.6917 8.97502 20.5333 9.13336L11.4333 18.2334L7.56667 18.6625C7.05 18.7209 6.6125 18.2834 6.67083 17.7667L7.1 13.9L16.2 4.80002C16.3583 4.64169 16.6167 4.64169 16.775 4.80002ZM23.525 3.84586L21.4917 1.81252C20.8583 1.17919 19.8292 1.17919 19.1917 1.81252L17.7167 3.28752C17.5583 3.44586 17.5583 3.70419 17.7167 3.86252L21.475 7.62086C21.6333 7.77919 21.8917 7.77919 22.05 7.62086L23.525 6.14586C24.1583 5.50836 24.1583 4.47919 23.525 3.84586V3.84586ZM16 15.7584V20H2.66667V6.66669H12.2417C12.375 6.66669 12.5 6.61252 12.5958 6.52086L14.2625 4.85419C14.5792 4.53752 14.3542 4.00002 13.9083 4.00002H2C0.895833 4.00002 0 4.89586 0 6.00002V20.6667C0 21.7709 0.895833 22.6667 2 22.6667H16.6667C17.7708 22.6667 18.6667 21.7709 18.6667 20.6667V14.0917C18.6667 13.6459 18.1292 13.425 17.8125 13.7375L16.1458 15.4042C16.0542 15.5 16 15.625 16 15.7584Z" fill="white"/>
</svg>
